<?xml version="1.0" standalone="no"?>
<!DOCTYPE svg PUBLIC "-//W3C//DTD SVG 20010904//EN"
 "http://www.w3.org/TR/2001/REC-SVG-20010904/DTD/svg10.dtd">
<svg version="1.0" xmlns="http://www.w3.org/2000/svg"
 width="560.000000pt" height="560.000000pt" viewBox="0 0 560.000000 560.000000"
 preserveAspectRatio="xMidYMid meet">
<metadata>
Created by potrace 1.14, written by Peter Selinger 2001-2017
</metadata>
<g transform="translate(0.000000,560.000000) scale(0.100000,-0.100000)"
fill="#000000" stroke="none">
<path d="M1124 4406 c-47 -21 -83 -74 -89 -132 -11 -99 63 -179 162 -175 86 3
143 56 151 142 12 125 -109 215 -224 165z"/>
<path d="M1675 4413 c-80 -21 -129 -132 -96 -218 17 -43 59 -83 95 -91 17 -4
111 -7 208 -6 162 0 180 2 215 22 22 12 50 40 64 63 l26 42 217 0 217 0 22
-40 c30 -52 79 -85 131 -86 63 -1 2039 -1 2056 0 19 2 -67 56 -144 91 -139 63
-381 140 -566 180 -244 53 -190 50 -799 50 l-567 0 -44 -22 c-33 -17 -50 -34
-65 -65 l-20 -42 -223 -1 c-203 0 -223 2 -229 18 -14 39 -48 75 -87 93 -35 16
-65 18 -216 18 -96 -1 -184 -4 -195 -6z"/>
<path d="M2030 3929 c-30 -3 -66 -12 -78 -20 -70 -43 -89 -166 -37 -235 49
-64 45 -64 550 -64 484 0 487 0 543 49 12 11 27 33 33 50 l11 31 136 0 137 0
24 -45 c17 -31 36 -50 65 -65 42 -20 58 -20 954 -20 502 0 912 2 912 6 0 17
-150 220 -214 289 l-25 27 -794 0 c-729 0 -797 -1 -828 -17 -39 -19 -66 -48
-80 -85 l-9 -25 -136 0 -136 0 -19 38 c-11 20 -37 49 -58 63 l-39 25 -428 2
c-236 1 -454 -1 -484 -4z"/>
<path d="M182 3429 c-72 -36 -106 -144 -68 -217 9 -17 32 -44 53 -59 l36 -28
710 0 c515 0 720 3 744 11 44 15 67 37 88 80 14 31 20 34 60 35 61 1 159 1
258 0 l82 -2 17 -37 c10 -20 34 -48 54 -62 l37 -25 1605 0 c882 0 1606 3 1608
6 7 12 -51 204 -89 291 l-11 27 -1547 -1 c-1535 0 -1548 0 -1589 -20 -26 -13
-50 -36 -66 -64 -17 -30 -33 -44 -47 -45 -12 0 -96 -1 -187 -1 l-165 -1 -14
29 c-21 44 -42 65 -86 85 -37 16 -89 18 -742 17 -672 0 -704 -1 -741 -19z"/>
<path d="M2728 2957 c-48 -13 -84 -43 -105 -87 l-18 -39 -130 1 -130 1 -21 41
c-12 25 -35 50 -60 63 -39 22 -43 23 -462 23 -400 0 -425 -1 -461 -20 -75 -38
-101 -154 -53 -232 41 -65 24 -63 499 -66 386 -2 436 -1 465 14 39 19 76 59
84 90 5 21 10 22 138 22 l133 0 12 -34 c7 -19 29 -46 48 -61 l36 -28 1396 0
1396 0 2 25 c3 24 3 251 1 278 -1 6 -6 12 -12 13 -77 6 -2735 2 -2758 -4z"/>
<path d="M821 2943 c-68 -36 -97 -105 -76 -186 20 -79 72 -117 158 -117 147 0
206 203 85 293 -38 29 -123 34 -167 10z"/>
<path d="M1863 2466 c-89 -28 -128 -137 -83 -230 15 -32 33 -50 61 -64 40 -20
64 -20 1784 -20 l1744 -1 31 87 c40 110 71 224 64 231 -9 10 -3572 7 -3601 -3z"/>
<path d="M872 1973 c-51 -25 -76 -68 -80 -138 -3 -50 0 -66 20 -94 49 -74 42
-72 474 -73 289 0 394 4 418 13 35 14 63 42 87 85 l15 29 154 0 c149 0 155 -1
165 -22 23 -45 51 -75 85 -90 31 -13 200 -15 1385 -14 743 0 1372 0 1398 1 42
0 52 4 83 38 48 51 168 210 188 250 l17 32 -1508 0 c-955 0 -1521 -4 -1542
-10 -41 -11 -85 -51 -101 -91 l-12 -29 -159 0 -159 0 -11 28 c-6 15 -20 38
-32 50 -47 51 -48 51 -463 51 -340 1 -393 -1 -422 -16z"/>
<path d="M1661 1499 c-92 -19 -147 -129 -112 -222 34 -89 170 -125 247 -65 79
62 76 216 -5 265 -32 20 -93 30 -130 22z"/>
<path d="M2185 1498 c-145 -21 -178 -232 -46 -300 47 -24 372 -26 428 -3 42
18 81 57 89 92 6 23 9 23 139 23 l133 0 10 -27 c15 -41 57 -81 100 -93 40 -13
1002 -8 1077 4 159 27 346 87 482 154 93 46 246 142 239 150 -3 3 -406 5 -895
5 -807 0 -893 -2 -925 -17 -38 -18 -73 -57 -82 -90 -5 -21 -11 -21 -127 -20
-155 2 -144 0 -152 27 -9 29 -43 65 -78 84 -32 16 -303 24 -392 11z"/>
</g>
</svg>
